<svg xmlns="http://www.w3.org/2000/svg" xml:space="preserve" fill-rule="evenodd" stroke-linejoin="round" stroke-miterlimit="1.414" clip-rule="evenodd" version="1.1" viewBox="0 0 24 24"><path d="M.616.166h128v128h-128z" fill="none"/><path d="M20.589 12.939c.236.102.254.143.27.383 0 1.91.006 3.82 0 5.73-.021 2.29-1.997 4.426-4.449 4.45-3.818.011-7.635.011-11.453 0-2.302-.024-4.425-1.996-4.447-4.45-.012-3.818-.012-7.636 0-11.454.022-2.31 1.992-4.44 4.476-4.448h8.996c.299.02.356.123.398.324.05.237-.145.473-.398.49-3.006 0-6.013-.01-9.019 0-1.883.018-3.62 1.632-3.639 3.64-.012 3.814-.012 7.628 0 11.443.018 1.893 1.632 3.62 3.64 3.64 3.813.011 7.628.01 11.442 0 1.895-.019 3.634-1.685 3.64-3.664v-5.702a.422.422 0 0 1 .544-.383zM21.628.489c1.357.028 2.442 1.732 1.543 3.024l-7.187 10.195a.41.41 0 0 1-.132.12l-3.273 1.854c-.286.14-.653-.1-.598-.443l.802-3.597a.406.406 0 0 1 .065-.146l7.186-10.194A1.945 1.945 0 0 1 21.628.49Zm-.038.815a1.13 1.13 0 0 0-.892.469L13.56 11.899l-.585 2.623 2.396-1.358c2.38-3.377 4.782-6.74 7.142-10.13.434-.642-.004-1.691-.869-1.73h-.054z" fill="teal"/></svg>