<svg xmlns="http://www.w3.org/2000/svg" xml:space="preserve" x="0" y="0" version="1.1" viewBox="0 0 512 512"><g><path d="M390.987.5H21.918A21.392 21.392 0 0 0 .593 21.825v469.35A21.37 21.37 0 0 0 21.918 512.5h369.07a21.392 21.392 0 0 0 21.324-21.325V21.825A21.392 21.392 0 0 0 390.987.5Z" fill="#f2f2f2"/><path d="M40.06 75.16h323.214v26.667H40.038Zm0 82.139h291.204v26.667H40.06Zm0 86.413h216.522v26.667H40.06Zm0 82.139h156.799v26.645h-156.8Zm0 85.322h94.916v26.667H40.06Z" fill="#000"/><path d="m246.988 237.3 113.08 112.013-64.02 63.997-85.321 17.05-55.472 10.686 10.685-55.472 17.05-85.344z" fill="#ccc"/><path d="m390.987 148.75 56.54 56.541-140.816 140.816-67.18 10.663 10.662-67.203z" fill="#009494" fill-opacity="1"/><path d="m296.049 413.31 10.685-67.225L447.505 205.29l28.804 27.736zm-45.856-123.743-67.225 10.685 180.306-180.305 27.713 28.826z" fill="teal"/><path d="m154.72 441.535 10.685-55.427 44.81 44.765zm346.72-264.492-82.138-82.139a20.613 20.613 0 0 0-29.873 0l-26.534 25.488L475.33 234.118l27.157-26.134a22.972 22.972 0 0 0-1.046-30.94z" fill="#40596b"/></g></svg>