<svg xmlns="http://www.w3.org/2000/svg" xml:space="preserve" x="0" y="0" version="1.1" viewBox="0 0 24 24"><path d="M18.131.5H1.551a.961.961 0 0 0-.958.958v21.085a.96.96 0 0 0 .958.958h16.58a.961.961 0 0 0 .958-.958V1.458A.961.961 0 0 0 18.131.5Z" fill="#f2f2f2"/><path d="M2.366 3.854h14.52v1.198H2.365zm0 3.69h13.082v1.198H2.366zm0 3.882h9.727v1.198H2.366zm0 3.69H9.41v1.197H2.366zm0 3.833H6.63v1.198H2.366z" fill="#4cdbc4"/><path d="m11.662 11.138 5.08 5.032-2.876 2.875-3.833.766-2.492.48.48-2.492.766-3.834z" fill="#ffd15c"/><path d="m18.131 7.16 2.54 2.54-6.326 6.326-3.018.479.479-3.019z" fill="#ff7058"/><path d="m13.866 19.045.48-3.02L20.67 9.7l1.294 1.246zm-2.06-5.559-3.02.48 8.1-8.1 1.245 1.295z" fill="#f1543f"/><path d="m7.54 20.29.48-2.491 2.013 2.012zM23.116 8.408l-3.69-3.69a.926.926 0 0 0-1.342 0l-1.15 1.15 5.08 5.08 1.15-1.15a1.032 1.032 0 0 0-.048-1.39z" fill="#40596b"/></svg>