<svg xmlns="http://www.w3.org/2000/svg" xml:space="preserve" fill-rule="evenodd" stroke-linejoin="round" stroke-miterlimit="1.414" clip-rule="evenodd" version="1.1" viewBox="0 0 1024 1024"><path d="M.616.166h128v128h-128z" fill="none"/><path d="M892.887 553.623c10.497 4.558 11.282 6.38 12.003 17.003 0 84.708.27 169.407 0 254.116-.956 101.548-88.589 196.292-197.311 197.312-169.308.523-338.607.54-507.915 0-102.1-.975-196.229-88.417-197.258-197.267a79418.321 79418.321 0 0 1 0-507.96c.966-102.442 88.336-196.915 198.512-197.267h398.92c13.276.911 15.821 5.478 17.671 14.377 2.175 10.486-6.453 20.955-17.67 21.722-133.317 0-266.633-.415-399.95.01-83.535.784-160.544 72.353-161.392 161.393a80618.023 80618.023 0 0 0 0 507.5c.802 83.967 72.362 160.544 161.393 161.391 169.154.542 338.308.524 507.463 0 84.03-.784 161.158-74.68 161.438-162.475V570.626c.794-11.66 11.542-20.522 24.096-17.003zM938.977 1.55c60.17 1.191 108.3 76.766 68.428 134.065L688.68 587.728c-2.193 2.762-2.888 3.394-5.857 5.298l-145.13 82.254c-12.698 6.253-28.996-4.432-26.516-19.64l35.54-159.497c.84-3.05 1.174-3.808 2.87-6.48L868.303 37.56c16.057-22.482 42.444-36.227 70.674-36.01Zm-1.687 36.09c-15.541.271-30.468 8.104-39.547 20.812L581.166 507.515l-25.92 116.313 106.26-60.213C767.07 413.863 873.565 264.753 978.21 114.36c19.287-28.464-.153-74.979-38.518-76.685a71.286 71.286 0 0 0-2.401-.036z" fill="teal"/></svg>