<svg xmlns="http://www.w3.org/2000/svg" data-name="Layer 1" version="1.1" viewBox="0 0 24 24"><path d="M12.258 15.834 12 15.833l-.26.001a.256.256 0 1 0 .006.511l.253-.001.254.001a.256.256 0 0 0 .005-.511zm2.227.116q-.275-.027-.556-.047a.256.256 0 1 0-.037.51q.275.02.544.045a.256.256 0 0 0 .049-.508zm4.375.912q-.259-.093-.534-.178a.256.256 0 1 0-.152.488q.265.082.513.171a.256.256 0 1 0 .173-.481Zm-2.165-.59q-.27-.053-.55-.101a.256.256 0 1 0-.087.503q.273.047.536.1a.256.256 0 0 0 .101-.501z"/><path d="M21.822 19.114 12.227.638a.256.256 0 0 0-.455 0L2.19 19.09a1.656 1.656 0 0 0-.156.576 1.731 1.731 0 0 0 .23.846 3.534 3.534 0 0 0 1.298 1.227 11.67 11.67 0 0 0 3.552 1.28 23.807 23.807 0 0 0 4.886.48c2.707 0 5.16-.404 6.957-1.063a7.03 7.03 0 0 0 2.159-1.186 2.764 2.764 0 0 0 .621-.738 1.731 1.731 0 0 0 .23-.846 1.534 1.534 0 0 0-.144-.552Zm-.533 1.15a3.022 3.022 0 0 1-1.117 1.038 11.161 11.161 0 0 1-3.391 1.218 23.473 23.473 0 0 1-4.781.468c-2.656 0-5.06-.399-6.778-1.032a6.583 6.583 0 0 1-2.003-1.089 2.313 2.313 0 0 1-.509-.603 1.211 1.211 0 0 1-.166-.598.874.874 0 0 1 .018-.181s.42-.816.495-.956c.074-.14.637-.422.796-.516a.255.255 0 1 0-.261-.437c-.02.01-.038.023-.059.035L12 1.31l8.467 16.301-.059-.038a.256.256 0 0 0-.263.44c.158.094.726.376.8.52l.493.949a1.122 1.122 0 0 1 .018.184 1.211 1.211 0 0 1-.166.598Z"/><path d="M7.853 16.17q-.28.049-.55.103a.256.256 0 0 0 .1.5q.263-.052.536-.099a.256.256 0 0 0-.086-.503zm-2.18.514q-.276.086-.535.178a.256.256 0 1 0 .173.481q.247-.088.513-.17a.256.256 0 1 0-.152-.489zm4.396-.781q-.281.02-.556.047a.256.256 0 1 0 .049.509q.269-.026.544-.046a.256.256 0 1 0-.037-.51z"/></svg>