<svg xmlns="http://www.w3.org/2000/svg" data-name="Layer 1" version="1.1" viewBox="0 0 24 24"><g><path d="M23.48.658A.256.256 0 0 0 23.246.5H6.889a.257.257 0 0 0-.18.075L.574 6.708a.258.258 0 0 0-.075.18v16.357a.256.256 0 0 0 .255.255h16.359a.255.255 0 0 0 .178-.074l6.133-6.134a.26.26 0 0 0 .075-.18V.754a.256.256 0 0 0-.02-.097Zm-16.829.696a.254.254 0 0 0 .493-.088v-.255h15.484l-5.623 5.622H1.372ZM1.343 22.99a.256.256 0 0 0-.332-.332V7.144h5.622V7.4a.256.256 0 0 0 .511 0v-.256h9.712v9.712H16.6a.256.256 0 0 0 0 .51h.256v5.623ZM17.367 6.995l5.622-5.623v15.484h-.255a.254.254 0 0 0-.089.493l-5.278 5.279Z"/><path d="M6.889 14.811a.256.256 0 0 0-.256.256v.51a.256.256 0 0 0 .511 0v-.51a.256.256 0 0 0-.255-.256zm0-2.044a.256.256 0 0 0-.256.255v.511a.256.256 0 0 0 .511 0v-.51a.256.256 0 0 0-.255-.256zm0-9.2a.256.256 0 0 0 .255-.256V2.8a.256.256 0 0 0-.51 0v.511a.256.256 0 0 0 .255.256zm0 7.155a.256.256 0 0 0-.256.256v.51a.256.256 0 0 0 .511 0v-.51a.256.256 0 0 0-.255-.256zm.255-5.367v-.51a.256.256 0 0 0-.51 0v.51a.256.256 0 0 0 .51 0zM6.89 8.678a.256.256 0 0 0-.256.255v.511a.256.256 0 0 0 .511 0v-.51a.256.256 0 0 0-.255-.256zm6.133 8.178h-.51a.256.256 0 0 0 0 .51h.51a.256.256 0 0 0 0-.51zm2.045 0h-.511a.256.256 0 0 0 0 .51h.51a.256.256 0 0 0 0-.51zm4.089 0h-.511a.256.256 0 0 0 0 .51h.51a.256.256 0 0 0 0-.51zm2.044 0h-.511a.256.256 0 0 0 0 .51h.511a.256.256 0 0 0 0-.51zm-10.222 0h-.511a.256.256 0 0 0 0 .51h.51a.256.256 0 0 0 0-.51zm-2.045 0h-.51a.256.256 0 0 0 0 .51h.51a.256.256 0 0 0 0-.51zm-1.808.158a.256.256 0 0 0-.416-.084l-.362.362a.256.256 0 1 0 .361.361l.361-.361a.257.257 0 0 0 .056-.279zm-1.863 1.362-.36.362a.256.256 0 0 0 .36.36l.362-.36a.256.256 0 0 0-.362-.362Zm-1.445 1.446-.362.361a.256.256 0 0 0 .362.362l.361-.362a.256.256 0 0 0-.361-.361zm-1.446 1.445-.361.362a.256.256 0 0 0 .361.361l.361-.361a.256.256 0 1 0-.361-.362z"/></g></svg>