<svg xmlns="http://www.w3.org/2000/svg" data-name="Layer 1" version="1.1" viewBox="0 0 24 24"><path d="M20.104 18.04a4.843 4.843 0 0 1 .433.296.251.251 0 0 0 .356-.05.262.262 0 0 0-.05-.363 5.35 5.35 0 0 0-.478-.326.252.252 0 0 0-.349.089.261.261 0 0 0 .088.355zm-1.96-.85q.264.083.51.173a.253.253 0 0 0 .325-.156.26.26 0 0 0-.153-.331q-.257-.094-.532-.18a.254.254 0 0 0-.318.17.26.26 0 0 0 .168.323zm-2.105-.505q.271.048.533.102a.255.255 0 0 0 .3-.203.259.259 0 0 0-.2-.305q-.268-.055-.547-.103a.255.255 0 0 0-.294.21.258.258 0 0 0 .208.3zm-2.156-.264q.274.02.542.046a.259.259 0 0 0 .048-.515q-.273-.027-.552-.047a.259.259 0 0 0-.038.516zm-4.307.047q.267-.027.541-.047a.259.259 0 0 0-.037-.516q-.28.02-.553.047a.259.259 0 0 0 .049.516zm-2.147.319q.261-.054.533-.101a.258.258 0 0 0 .207-.3.255.255 0 0 0-.294-.21q-.278.048-.547.104a.259.259 0 0 0-.199.304.255.255 0 0 0 .3.203zm-2.083.576q.247-.09.51-.173a.26.26 0 0 0 .168-.324.254.254 0 0 0-.318-.17q-.274.086-.531.18a.26.26 0 0 0-.154.331.253.253 0 0 0 .325.156zm-1.882.974a4.84 4.84 0 0 1 .433-.296.261.261 0 0 0 .087-.355.252.252 0 0 0-.348-.088 5.345 5.345 0 0 0-.479.326.262.262 0 0 0-.05.363.251.251 0 0 0 .357.05zm9.045-2.24a.253.253 0 0 1-.256.254h-.504a.253.253 0 0 1-.257-.253.258.258 0 0 1 .252-.264h.514a.258.258 0 0 1 .251.264z"/><path d="M21.737 3.488a3.534 3.534 0 0 0-1.298-1.227 11.668 11.668 0 0 0-3.552-1.28A23.807 23.807 0 0 0 12 .501C9.294.5 6.84.905 5.044 1.564A7.03 7.03 0 0 0 2.885 2.75a2.764 2.764 0 0 0-.621.738 1.73 1.73 0 0 0-.23.846v15.333a1.731 1.731 0 0 0 .23.846 3.534 3.534 0 0 0 1.298 1.227 11.67 11.67 0 0 0 3.552 1.28 23.807 23.807 0 0 0 4.887.48c2.706 0 5.16-.404 6.956-1.063a7.03 7.03 0 0 0 2.159-1.186 2.764 2.764 0 0 0 .621-.738 1.731 1.731 0 0 0 .23-.846V4.334a1.73 1.73 0 0 0-.23-.846Zm-19.026.248a3.022 3.022 0 0 1 1.117-1.038A11.162 11.162 0 0 1 7.219 1.48a23.473 23.473 0 0 1 4.782-.468c2.655 0 5.06.399 6.777 1.032a6.583 6.583 0 0 1 2.003 1.089 2.313 2.313 0 0 1 .509.603 1.16 1.16 0 0 1 0 1.196 3.022 3.022 0 0 1-1.117 1.038 11.161 11.161 0 0 1-3.391 1.218A23.473 23.473 0 0 1 12 7.656c-2.656 0-5.06-.399-6.778-1.032A6.583 6.583 0 0 1 3.22 5.535a2.313 2.313 0 0 1-.509-.603 1.16 1.16 0 0 1 0-1.196zm18.745 15.931a1.211 1.211 0 0 1-.166.598 3.022 3.022 0 0 1-1.117 1.038 11.161 11.161 0 0 1-3.391 1.218A23.473 23.473 0 0 1 12 22.99c-2.656 0-5.06-.399-6.778-1.032a6.583 6.583 0 0 1-2.003-1.089 2.313 2.313 0 0 1-.509-.603 1.211 1.211 0 0 1-.166-.598V5.576a4.136 4.136 0 0 0 1.017.83 11.67 11.67 0 0 0 3.552 1.28A23.807 23.807 0 0 0 12 8.167c2.706 0 5.16-.404 6.956-1.063a7.03 7.03 0 0 0 2.159-1.186 3.265 3.265 0 0 0 .34-.337Z"/></svg>