<svg xmlns="http://www.w3.org/2000/svg" preserveAspectRatio="xMidYMid" version="1.1" viewBox="0 0 24 24"><path d="M18.111 22.966a1.54 1.54 0 0 1-.86-.264l-5.178-3.47a.153.153 0 0 0-.174 0l-5.177 3.47a1.54 1.54 0 0 1-2.346-1.673l1.7-5.997a.16.16 0 0 0-.055-.166l-4.9-3.852a1.54 1.54 0 0 1 .895-2.777l6.246-.236a.16.16 0 0 0 .14-.104l2.15-5.85a1.54 1.54 0 0 1 2.895 0l2.152 5.85a.16.16 0 0 0 .139.104l6.246.236a1.54 1.54 0 0 1 .896 2.777l-4.9 3.852a.153.153 0 0 0-.056.166l1.7 5.997a1.548 1.548 0 0 1-1.513 1.937zm-6.121-5.15a1.534 1.534 0 0 1 .853.291l5.178 3.47a.153.153 0 0 0 .236-.173l-1.7-5.997a1.534 1.534 0 0 1 .534-1.631l4.9-3.852a.153.153 0 0 0-.09-.278l-6.247-.236a1.54 1.54 0 0 1-1.388-1.013l-2.151-5.851a.153.153 0 0 0-.292 0L9.693 8.39a1.54 1.54 0 0 1-1.389 1.013l-6.247.236a.153.153 0 0 0-.09.278l4.907 3.859a1.54 1.54 0 0 1 .535 1.631l-1.694 5.997a.146.146 0 0 0 .056.166.139.139 0 0 0 .18 0l5.178-3.47a1.54 1.54 0 0 1 .854-.257z" class="clr-i-outline clr-i-outline-path-1"/><path d="M0 0h36v36H0z" fill="none"/></svg>