<svg xmlns="http://www.w3.org/2000/svg" preserveAspectRatio="xMidYMid" version="1.1" viewBox="0 0 24 24"><path d="M23.353 10.936a1.607 1.607 0 0 0-.934-2.896l-6.516-.246a.167.167 0 0 1-.145-.11l-2.252-6.081a1.607 1.607 0 0 0-3.02 0L8.243 7.707a.167.167 0 0 1-.145.108l-6.516.246a1.607 1.607 0 0 0-.934 2.897l5.112 4.018a.167.167 0 0 1 .058.174l-1.76 6.234a1.607 1.607 0 0 0 2.448 1.774l5.4-3.62a.16.16 0 0 1 .182 0l5.401 3.62a1.593 1.593 0 0 0 1.846 0 1.593 1.593 0 0 0 .601-1.738l-1.773-6.256a.16.16 0 0 1 .057-.174z" class="clr-i-solid clr-i-solid-path-1"/><path d="M0 0h36v36H0z" fill="none"/></svg>