<svg xmlns="http://www.w3.org/2000/svg" xml:space="preserve" version="1.1" viewBox="0 0 24 24"><g fill="#000"><path d="M23.5 7.927h-1.34V4.525a.655.655 0 0 0-.671-.67H2.561a.655.655 0 0 0-.671.67v3.402H.548V4.525c0-1.102.91-2.012 2.013-2.012h18.927c1.102 0 2.013.91 2.013 2.012v3.402m-3.403 13.561H3.855a2.025 2.025 0 0 1-2.013-2.013v-11.5h1.342v11.5c0 .384.287.671.67.671h16.244a.654.654 0 0 0 .671-.67v-11.5h1.342v11.5c.048 1.102-.863 2.012-2.013 2.012"/><path d="M14.684 12H9.269a.655.655 0 0 1-.67-.67c0-.384.287-.671.67-.671h5.415c.383 0 .67.287.67.67a.654.654 0 0 1-.67.671M.5 6.586h23v1.341H.5z"/></g></svg>