<svg xmlns="http://www.w3.org/2000/svg" data-name="Layer 1" version="1.1" viewBox="0 0 24 24"><path d="M23.465 19.537 12.22.624a.256.256 0 0 0-.44 0L.535 19.537a.26.26 0 0 0-.018.222.25.25 0 0 0 .16.151L11.9 23.48a.253.253 0 0 0 .2 0l11.222-3.57a.25.25 0 0 0 .161-.15.26.26 0 0 0-.018-.223zm-11.72 3.358L1.137 19.522 11.744 1.685Zm.51 0V1.685l10.607 17.837z"/><path d="m10.063 16.78.487-.163a.273.273 0 0 0 .166-.34.253.253 0 0 0-.321-.175l-.487.164a.273.273 0 0 0-.166.339.253.253 0 0 0 .32.175zm-1.949.655.488-.164a.273.273 0 0 0 .166-.339.253.253 0 0 0-.322-.175l-.487.163a.273.273 0 0 0-.166.34.253.253 0 0 0 .321.175zm-1.948.655.487-.164a.273.273 0 0 0 .166-.339.253.253 0 0 0-.32-.176l-.488.164a.273.273 0 0 0-.166.34.253.253 0 0 0 .32.175zm-1.948.654.487-.163a.273.273 0 0 0 .166-.34.253.253 0 0 0-.321-.175l-.487.164a.273.273 0 0 0-.166.339.253.253 0 0 0 .32.175zm-1.949.655.487-.164a.273.273 0 0 0 .166-.339.253.253 0 0 0-.32-.175l-.488.164a.273.273 0 0 0-.166.339.253.253 0 0 0 .321.175zm11.823-3.133-.487-.164a.253.253 0 0 0-.321.175.273.273 0 0 0 .166.34l.487.163a.253.253 0 0 0 .321-.175.273.273 0 0 0-.166-.34Zm1.949.654-.487-.163a.253.253 0 0 0-.321.175.273.273 0 0 0 .166.34l.487.163a.253.253 0 0 0 .32-.175.273.273 0 0 0-.166-.34zm1.948.655-.487-.163a.253.253 0 0 0-.321.175.273.273 0 0 0 .166.339l.487.163a.253.253 0 0 0 .321-.175.273.273 0 0 0-.166-.339Zm1.948.655-.487-.164a.253.253 0 0 0-.32.176.273.273 0 0 0 .165.339l.487.163a.253.253 0 0 0 .321-.175.273.273 0 0 0-.166-.339zm1.949.655-.487-.164a.253.253 0 0 0-.321.175.273.273 0 0 0 .166.34l.487.163a.253.253 0 0 0 .321-.175.273.273 0 0 0-.166-.34z"/></svg>