<svg xmlns="http://www.w3.org/2000/svg" xml:space="preserve" version="1.1" viewBox="0 0 24 24"><path d="M18.5 23.5h-13a2 2 0 0 1-2-2v-19a2 2 0 0 1 2-2H15c.16 0 .296.08.388.198l4.914 4.914A.49.49 0 0 1 20.5 6v15.5a2 2 0 0 1-2 2zm-3-21.31V5.5h3.31zm4 4.31H15a.5.5 0 0 1-.5-.5V1.5h-9a1 1 0 0 0-1 1v19a1 1 0 0 0 1 1h13a1 1 0 0 0 1-1zm-3 13h-9a.5.5 0 1 1 0-1h9a.5.5 0 1 1 0 1zm0-4h-9a.5.5 0 1 1 0-1h9a.5.5 0 1 1 0 1zm0-4h-9a.5.5 0 1 1 0-1h9a.5.5 0 1 1 0 1z" fill-rule="evenodd" clip-rule="evenodd"/></svg>