<svg xmlns="http://www.w3.org/2000/svg" data-name="Layer 1" version="1.1" viewBox="0 0 24 24"><path d="M12 .5A11.5 11.5 0 1 0 23.5 12 11.5 11.5 0 0 0 12 .5ZM4.23 4.23a10.987 10.987 0 0 1 18.714 6.794c-.022-.017-.039-.036-.061-.053a.256.256 0 0 0-.311.406 1.413 1.413 0 0 1 .303.303.248.248 0 0 0 .108.083c.002.08.006.158.006.237a.522.522 0 0 1-.163.344 3.425 3.425 0 0 1-1.299.742 18.854 18.854 0 0 1-3.963.878A43.62 43.62 0 0 1 12 14.3c-3.089 0-5.886-.285-7.895-.742a9.75 9.75 0 0 1-2.345-.788 2.184 2.184 0 0 1-.586-.426A.522.522 0 0 1 1.01 12c0-.08.004-.158.006-.237a.248.248 0 0 0 .108-.083 1.413 1.413 0 0 1 .303-.303.256.256 0 0 0-.31-.406c-.023.017-.04.036-.062.053A10.952 10.952 0 0 1 4.23 4.229Zm15.54 15.54a10.986 10.986 0 0 1-18.718-6.848 4.785 4.785 0 0 0 1.242.643 19.323 19.323 0 0 0 4.076.905 44.128 44.128 0 0 0 5.63.341c3.121 0 5.946-.287 8.008-.755a10.213 10.213 0 0 0 2.474-.836 3.326 3.326 0 0 0 .466-.3 10.952 10.952 0 0 1-3.177 6.85z"/><path d="M12.767 9.7q.256 0 .508.003a.256.256 0 1 0 .005-.512q-.254-.002-.513-.002a.256.256 0 0 0 0 .511zm2.033.043q.257.011.507.025a.256.256 0 1 0 .029-.51q-.254-.014-.514-.026a.256.256 0 1 0-.022.51zm2.026.14q.257.024.505.052a.256.256 0 0 0 .057-.508q-.252-.028-.513-.053a.256.256 0 1 0-.049.508zm3.974.701q.25.075.475.153a.256.256 0 0 0 .169-.483q-.237-.083-.5-.16a.256.256 0 0 0-.144.49zm-1.964-.44q.255.043.497.09a.256.256 0 1 0 .097-.502q-.248-.048-.51-.092a.256.256 0 1 0-.084.504zm-14.169.09q.242-.047.497-.09a.256.256 0 1 0-.085-.504q-.26.044-.509.092a.256.256 0 1 0 .097.502zm-1.942.503q.224-.078.475-.153a.256.256 0 0 0-.145-.49q-.261.077-.498.16a.256.256 0 1 0 .168.483zm5.968-.969q.25-.014.507-.025a.256.256 0 0 0-.022-.51q-.26.01-.514.025a.256.256 0 1 0 .029.51zm-2.024.167q.248-.028.505-.053a.256.256 0 0 0-.05-.508q-.26.025-.512.053a.256.256 0 1 0 .057.508zm4.056-.232q.252-.003.508-.003a.256.256 0 0 0 0-.511q-.259 0-.513.002a.256.256 0 1 0 .005.512z"/></svg>