<svg xmlns="http://www.w3.org/2000/svg" data-name="Layer 1" version="1.1" viewBox="0 0 24 24"><g><path d="M6.633 17.111a.256.256 0 1 0 .256-.255.256.256 0 0 0-.256.255zm0-2.044v.51a.256.256 0 0 0 .511 0v-.51a.256.256 0 0 0-.51 0zm0-2.045v.511a.256.256 0 0 0 .511 0v-.51a.256.256 0 0 0-.51 0zm0-2.044v.51a.256.256 0 0 0 .511 0v-.51a.256.256 0 0 0-.51 0zm0-2.045v.511a.256.256 0 0 0 .511 0v-.51a.256.256 0 0 0-.51 0zm0-2.044v.51a.256.256 0 0 0 .511 0v-.51a.256.256 0 0 0-.51 0zm0-2.045v.511a.256.256 0 0 0 .511 0v-.51a.256.256 0 0 0-.51 0zm0-2.044v.511a.256.256 0 0 0 .511 0V2.8a.256.256 0 0 0-.51 0zm8.434 14.056h-.511a.256.256 0 0 0 0 .51h.51a.256.256 0 0 0 0-.51zm-2.045 0h-.51a.256.256 0 0 0 0 .51h.51a.256.256 0 0 0 0-.51zm-4.089 0h-.51a.256.256 0 0 0 0 .51h.51a.256.256 0 0 0 0-.51zm2.045 0h-.511a.256.256 0 0 0 0 .51h.51a.256.256 0 0 0 0-.51zm6.133 0h-.51a.256.256 0 0 0 0 .51h.51a.256.256 0 0 0 0-.51zm4.09 0h-.512a.256.256 0 0 0 0 .51h.511a.256.256 0 0 0 0-.51zm-2.045 0h-.511a.256.256 0 0 0 0 .51h.51a.256.256 0 0 0 0-.51z"/><path d="m2.371 21.267-.361.362a.256.256 0 0 0 .361.361l.361-.361a.256.256 0 0 0-.361-.362zm1.446-1.445-.362.361a.256.256 0 1 0 .362.362l.361-.362a.256.256 0 0 0-.361-.361Zm1.445-1.446-.36.362a.256.256 0 0 0 .36.36l.362-.36a.256.256 0 0 0-.362-.362zm1.446-1.445-.361.36a.256.256 0 0 0 .361.362l.361-.361a.256.256 0 0 0-.36-.361z"/><path d="M23.425 16.93 7.07.576a.256.256 0 0 0-.36 0L.574 6.708c-.004.004-.005.01-.01.013a.251.251 0 0 0-.037.058.246.246 0 0 0-.011.023.252.252 0 0 0-.017.087v16.356a.256.256 0 0 0 .255.255h16.356a.252.252 0 0 0 .087-.017.243.243 0 0 0 .023-.01.252.252 0 0 0 .058-.039c.004-.003.009-.005.013-.009l6.133-6.133a.256.256 0 0 0 0-.361zm-6.314 5.953L1.117 6.89l5.772-5.772L22.883 17.11ZM1.011 7.506l15.483 15.483H1.011Z"/></g></svg>